<svg width="16" height="24" viewBox="0 0 16 24" fill="none" xmlns="http://www.w3.org/2000/svg">
<g clip-path="url(#clip0_326_1234)">
<path d="M4.92385 24H0.245716C0.0423956 23.8547 -0.000960342 23.652 0.000211533 23.4141C0.00802403 22.1492 0.00802403 20.884 0.000211533 19.6184C-0.00394559 19.3852 0.0532348 19.1551 0.166029 18.951C1.51369 16.4643 2.85724 13.9754 4.1967 11.4844C4.32677 11.2424 4.30509 11.2055 4.03263 11.2055C2.85568 11.2055 1.67834 11.2055 0.500605 11.2055C0.14494 11.2055 0.00723964 11.0695 0.00430995 10.7115C0.000794324 10.251 0.00430995 9.78984 0.00430995 9.3293C0.00430995 7.86094 0.00430995 6.39238 0.00430995 4.92363C0.00430995 4.53281 0.132634 4.40742 0.521111 4.40332H0.708022C2.83693 4.40332 4.96583 4.40449 7.09474 4.40684C7.2506 4.40684 7.35841 4.36758 7.4463 4.23633C7.66837 3.90703 7.91154 3.5918 8.12424 3.25664C8.74182 2.28164 9.34592 1.29902 9.96291 0.326953C10.0391 0.205664 10.1592 0.111914 10.2559 0.00585938H14.9346C15.1367 0.151758 15.1813 0.352734 15.1795 0.591797C15.1707 1.78652 15.1824 2.98184 15.1672 4.17715C15.1634 4.40126 15.1089 4.62161 15.0078 4.82168C13.6797 7.3877 12.3428 9.9502 10.9971 12.5092C10.9567 12.5871 10.9285 12.6709 10.8729 12.8021H14.5842C15.0594 12.8021 15.1701 12.9135 15.1701 13.398V18.624C15.1701 19.0928 15.0453 19.2158 14.5736 19.2164H8.4213C7.74279 19.2164 7.7422 19.2164 7.40353 19.8158C6.68224 21.0914 5.96447 22.3687 5.23556 23.6408C5.16056 23.7727 5.03049 23.8793 4.92385 24Z" fill="#F8F8F8"/>
</g>
<defs>
<clipPath id="clip0_326_1234">
<rect width="15.1811" height="24" fill="white"/>
</clipPath>
</defs>
</svg>
