<svg width="25" height="26" viewBox="0 0 25 26" fill="none" xmlns="http://www.w3.org/2000/svg">
<g clip-path="url(#clip0_326_1238)">
<path d="M8.31013 0.976196H16.0127C16.2012 0.992223 16.3851 1.00731 16.5713 1.02333C17.2703 1.08555 17.975 1.10865 18.6665 1.21753C21.571 1.67382 23.6809 3.87462 24.04 6.79095C24.0869 7.16804 24.134 7.54623 24.1815 7.92552V17.9269C24.1664 18.0108 24.147 18.0938 24.1343 18.1782C24.0697 18.6806 24.0471 19.1926 23.9368 19.6865C23.324 22.428 21.6436 24.1174 18.8984 24.7386C17.7228 25.004 16.5218 24.9969 15.3278 25.0092C13.2393 25.0302 11.1506 25.0302 9.06149 25.0092C7.85904 24.9974 6.64998 25.0045 5.4678 24.733C2.7584 24.1105 1.0915 22.4412 0.467095 19.7252C0.207845 18.5883 0.207844 17.4278 0.194645 16.2724C0.173905 14.5124 0.18192 12.7518 0.187105 10.9932C0.191818 9.4848 0.158822 7.97219 0.427971 6.47938C0.699949 4.97101 1.3707 3.67759 2.54911 2.66745C3.77089 1.61961 5.22505 1.1968 6.79139 1.07424C7.2967 1.03229 7.80389 1.00825 8.31013 0.976196ZM12.2064 22.8895V22.847C13.0752 22.847 13.9439 22.8645 14.8121 22.8428C16.0146 22.8136 17.2246 22.8617 18.4124 22.6227C20.1093 22.2814 21.2382 21.2953 21.7322 19.6196C21.9679 18.8244 22.0061 18.0005 22.0151 17.1817C22.0377 14.7485 22.0443 12.3152 22.0349 9.88169C22.0316 8.85835 22.0349 7.82984 21.8326 6.81782C21.4782 5.0634 20.4657 3.91233 18.707 3.45746C17.7044 3.19821 16.6759 3.19962 15.654 3.1869C13.6667 3.16286 11.679 3.17228 9.6917 3.17794C8.50339 3.18124 7.31037 3.15956 6.13525 3.37073C4.32993 3.69503 3.13313 4.7094 2.65988 6.5185C2.43363 7.38204 2.4077 8.26773 2.4011 9.14824C2.38068 11.7222 2.38068 14.2965 2.4011 16.8711C2.40971 17.6288 2.47272 18.3849 2.58965 19.1336C2.77819 20.346 3.36457 21.3368 4.41619 22.009C5.21468 22.5199 6.11734 22.716 7.04546 22.7528C8.76453 22.8239 10.4855 22.848 12.2064 22.8895V22.8895Z" fill="#F8F8F8"/>
<path d="M18.3924 12.9998C18.3924 16.3936 15.6113 19.1798 12.2175 19.1859C8.81424 19.1925 6.01904 16.4021 6.01904 12.9983C6.01904 9.59462 8.82696 6.79471 12.2189 6.81215C15.625 6.83007 18.3928 9.60358 18.3924 12.9998ZM8.21089 12.9965C8.21052 13.786 8.4441 14.558 8.88213 15.215C9.32015 15.8719 9.94299 16.3844 10.672 16.6876C11.401 16.9909 12.2036 17.0713 12.9783 16.9188C13.753 16.7664 14.4652 16.3878 15.0249 15.8309C15.5846 15.274 15.9668 14.5637 16.1232 13.7898C16.2796 13.0158 16.2032 12.2129 15.9037 11.4824C15.6041 10.7518 15.0948 10.1264 14.4401 9.68504C13.7854 9.2437 13.0146 9.00622 12.225 9.00259C11.6983 8.99797 11.1759 9.09796 10.6881 9.29679C10.2003 9.49561 9.7569 9.7893 9.38349 10.1608C9.01009 10.5323 8.71416 10.9743 8.51287 11.4611C8.31158 11.9478 8.20893 12.4697 8.21089 12.9965V12.9965Z" fill="#F8F8F8"/>
<path d="M18.6054 8.01932C17.8069 8.01603 17.1837 7.37403 17.1875 6.55809C17.1965 6.17932 17.3539 5.81924 17.6259 5.55548C17.8979 5.29171 18.2626 5.14539 18.6415 5.14805C19.0204 5.1507 19.383 5.30213 19.6513 5.56969C19.9195 5.83725 20.0719 6.1995 20.0756 6.57836C20.0756 7.38345 19.4241 8.02262 18.6054 8.01932Z" fill="#F8F8F8"/>
</g>
<defs>
<clipPath id="clip0_326_1238">
<rect width="24" height="24.0476" fill="white" transform="translate(0.181152 0.976196)"/>
</clipPath>
</defs>
</svg>
