<svg width="24" height="22" viewBox="0 0 24 22" fill="none" xmlns="http://www.w3.org/2000/svg">
<g clip-path="url(#clip0_326_1228)">
<path d="M0 16.7128C4.86023 16.7128 9.72108 16.7114 14.5826 16.7085C14.7934 16.7085 14.8954 16.7785 14.9967 16.9543C15.8225 18.402 16.659 19.8441 17.4923 21.288C17.5336 21.3606 17.5711 21.435 17.6293 21.5432C17.5198 21.5495 17.4416 21.5589 17.3597 21.5589H4.298C3.28075 21.5589 2.5275 21.1166 2.02263 20.2282C1.38012 19.0971 0.721338 17.976 0.0694428 16.8499C0.0481025 16.8183 0.0249151 16.788 0 16.7591V16.7128Z" fill="#F8F8F8"/>
<path d="M21.5632 21.5182L9.40869 0.457367C9.51505 0.450485 9.58762 0.441101 9.65894 0.441101H13.4752C14.485 0.441101 15.2313 0.879034 15.735 1.7549C18.3726 6.3507 21.0116 10.9455 23.6522 15.5392C24.0832 16.2899 24.1258 17.0851 23.691 17.8571C23.0134 19.0583 22.3146 20.2488 21.6264 21.4431C21.6075 21.4699 21.5864 21.495 21.5632 21.5182Z" fill="#F8F8F8"/>
<path d="M12.8682 13.2845H1.97363C3.79168 10.1345 5.59534 7.01013 7.4209 3.84637L12.8682 13.2845Z" fill="#F8F8F8"/>
</g>
<defs>
<clipPath id="clip0_326_1228">
<rect width="24" height="21.119" fill="white" transform="translate(0 0.440491)"/>
</clipPath>
</defs>
</svg>
