<svg width="26" height="26" viewBox="0 0 26 26" fill="none" xmlns="http://www.w3.org/2000/svg">
<rect width="26" height="26" rx="8" fill="url(#paint0_linear_558_3741)" fill-opacity="0.15"/>
<rect x="0.5" y="0.5" width="25" height="25" rx="7.5" stroke="url(#paint1_linear_558_3741)" stroke-opacity="0.15"/>
<path d="M16.9475 8.93049L10.8221 14.9518L8.0525 12.2293C7.46848 11.6553 6.5218 11.6553 5.938 12.2292C5.35405 12.8032 5.35398 13.7338 5.93792 14.3077L9.76473 18.0695C10.0452 18.3452 10.4255 18.5 10.8221 18.5C11.2187 18.5 11.599 18.3452 11.8794 18.0695L19.0621 11.0089C19.646 10.4349 19.6459 9.50436 19.062 8.93042C18.4781 8.35648 17.5314 8.35655 16.9475 8.93049Z" fill="url(#paint2_linear_558_3741)"/>
<defs>
<linearGradient id="paint0_linear_558_3741" x1="26" y1="26" x2="-1.8483" y2="23.841" gradientUnits="userSpaceOnUse">
<stop stop-color="#A36ADD"/>
<stop offset="1" stop-color="#5A96F3"/>
</linearGradient>
<linearGradient id="paint1_linear_558_3741" x1="26" y1="26" x2="-1.8483" y2="23.841" gradientUnits="userSpaceOnUse">
<stop stop-color="#A36ADD"/>
<stop offset="1" stop-color="#5A96F3"/>
</linearGradient>
<linearGradient id="paint2_linear_558_3741" x1="4.19545" y1="21" x2="20.0608" y2="20.2423" gradientUnits="userSpaceOnUse">
<stop stop-color="#3E1569"/>
<stop offset="1" stop-color="#0C68F7"/>
</linearGradient>
</defs>
</svg>
