<svg width="32" height="32" viewBox="0 0 32 32" fill="none" xmlns="http://www.w3.org/2000/svg">
<rect width="32" height="32" rx="16" fill="url(#paint0_linear_558_3542)" fill-opacity="0.15"/>
<rect x="0.5" y="0.5" width="31" height="31" rx="15.5" stroke="url(#paint1_linear_558_3542)" stroke-opacity="0.15"/>
<path d="M27 16.8168C26.956 17.1661 26.923 17.5267 26.8791 17.8761C26.6702 19.4649 26.1314 20.9411 25.2959 22.2933C24.2624 23.9724 22.8881 25.2908 21.1839 26.2148C20.6672 26.4965 20.1064 26.7219 19.5567 26.9473C19.073 27.1388 18.7431 26.8684 18.7431 26.3388C18.7431 25.3697 18.7541 24.4006 18.7541 23.4427C18.7541 22.9018 18.6991 22.3722 18.4573 21.8877C18.3473 21.6736 18.2044 21.4707 18.0615 21.2566C18.4463 21.189 18.8421 21.1327 19.2269 21.0425C20.3153 20.7834 21.2939 20.3101 21.9975 19.3748C22.5142 18.6987 22.7781 17.9211 22.91 17.0873C23.02 16.3999 23.053 15.7012 22.965 15.0138C22.8661 14.1912 22.5472 13.4701 22.0305 12.839C21.9205 12.7038 21.9095 12.5911 21.9535 12.4333C22.2174 11.5319 22.1184 10.6416 21.7996 9.77396C21.7776 9.71761 21.6347 9.65 21.5577 9.66127C21.2059 9.71761 20.8321 9.75142 20.5132 9.88664C19.9635 10.1233 19.4468 10.4501 18.919 10.7205C18.8201 10.7769 18.6772 10.7994 18.5672 10.7769C16.8521 10.3487 15.1369 10.3487 13.4218 10.7769C13.3228 10.7994 13.1799 10.7769 13.092 10.7205C12.4543 10.3148 11.8166 9.93172 11.091 9.74015C10.8601 9.68381 10.6292 9.67254 10.3873 9.65C10.2774 9.63873 10.2114 9.69508 10.1784 9.81903C9.88156 10.7092 9.79361 11.6107 10.0795 12.5348C10.1015 12.6024 10.0795 12.7151 10.0355 12.7601C9.10095 13.8645 8.89206 15.1603 9.03498 16.5689C9.10095 17.2676 9.24388 17.9437 9.52974 18.5747C10.0025 19.6227 10.7941 20.3213 11.8276 20.7496C12.4433 21.0087 13.081 21.144 13.7406 21.2341C13.8066 21.2454 13.8836 21.2566 13.9275 21.2679C13.7846 21.5271 13.6197 21.775 13.4988 22.0454C13.4328 22.1919 13.3778 22.3497 13.3558 22.5074C13.3338 22.7441 13.2129 22.8455 13.004 22.9131C12.3223 23.1272 11.6407 23.1948 10.992 22.8117C10.6292 22.6089 10.3653 22.3046 10.1564 21.944C9.91454 21.5384 9.61769 21.1778 9.21089 20.9524C8.90305 20.7721 8.57322 20.6481 8.2104 20.7157C8.11145 20.7383 7.97951 20.7946 7.93553 20.8848C7.91355 20.9411 8.01249 21.0763 8.06746 21.1552C8.12244 21.2228 8.18841 21.2792 8.26537 21.3242C8.90305 21.7186 9.26587 22.3272 9.54073 23.0145C9.98051 24.0963 10.8161 24.6034 11.9155 24.6597C12.3443 24.6823 12.7841 24.6147 13.2349 24.5921C13.2349 24.6147 13.2459 24.671 13.2459 24.7161C13.2569 25.2457 13.2569 25.7866 13.2679 26.3162C13.2679 26.9135 12.927 27.1501 12.3883 26.9473C9.95852 26.0571 8.04548 24.4907 6.67117 22.2595C5.79161 20.8397 5.26387 19.2734 5.08795 17.5943C5.06597 17.3464 5.03298 17.0873 5 16.8394C5 16.4337 5 16.0167 5 15.6111C5.01099 15.5547 5.03298 15.4984 5.03298 15.4421C5.10994 14.2476 5.35182 13.0869 5.82459 12.0051C7.53973 8.02733 10.4863 5.68346 14.6972 5.08623C17.1599 4.7369 19.5017 5.26653 21.6347 6.60749C24.4933 8.35412 26.2194 10.9459 26.8241 14.3039C26.9011 14.7209 26.934 15.1603 27 15.5885C27 15.9942 27 16.3999 27 16.8168Z" fill="url(#paint2_linear_558_3542)"/>
<defs>
<linearGradient id="paint0_linear_558_3542" x1="32" y1="32" x2="-2.27483" y2="29.3428" gradientUnits="userSpaceOnUse">
<stop stop-color="#A36ADD"/>
<stop offset="1" stop-color="#5A96F3"/>
</linearGradient>
<linearGradient id="paint1_linear_558_3542" x1="32" y1="32" x2="-2.27483" y2="29.3428" gradientUnits="userSpaceOnUse">
<stop stop-color="#A36ADD"/>
<stop offset="1" stop-color="#5A96F3"/>
</linearGradient>
<linearGradient id="paint2_linear_558_3542" x1="2.95" y1="32.5277" x2="27.9092" y2="31.6777" gradientUnits="userSpaceOnUse">
<stop stop-color="#4A266F"/>
<stop offset="1" stop-color="#39549A"/>
</linearGradient>
</defs>
</svg>
