<svg width="25" height="25" viewBox="0 0 25 25" fill="none" xmlns="http://www.w3.org/2000/svg">
<path d="M19.75 13.1123C19.6377 13.7113 19.3507 14.2637 18.925 14.6998L10.425 23.2248C9.84106 23.7571 9.07461 24.0442 8.28467 24.0264C7.49472 24.0087 6.74191 23.6876 6.18239 23.1297C5.62288 22.5718 5.29959 21.8199 5.2796 21.03C5.25961 20.2401 5.54445 19.4728 6.07503 18.8873L12.5 12.4998L6.07503 6.07484C5.5033 5.50289 5.18213 4.72729 5.18213 3.91859C5.18213 3.10989 5.5033 2.33429 6.07503 1.76234C6.35921 1.4757 6.69832 1.24935 7.07205 1.09685C7.44577 0.944358 7.84643 0.868846 8.25003 0.874843C8.65313 0.872348 9.05277 0.949461 9.42601 1.10176C9.79924 1.25406 10.1387 1.47854 10.425 1.76234L18.925 10.2998C19.2324 10.5921 19.4604 10.9577 19.5875 11.3623C19.8281 11.9131 19.8851 12.5267 19.75 13.1123V13.1123Z" fill="url(#paint0_linear_209_807)"/>
<defs>
<linearGradient id="paint0_linear_209_807" x1="19.8216" y1="24.0272" x2="4.085" y2="23.2558" gradientUnits="userSpaceOnUse">
<stop stop-color="#5A96F3"/>
<stop offset="1" stop-color="#5A96F3"/>
</linearGradient>
</defs>
</svg>
