<svg width="32" height="32" viewBox="0 0 32 32" fill="none" xmlns="http://www.w3.org/2000/svg">
<rect width="32" height="32" rx="16" fill="url(#paint0_linear_558_3525)" fill-opacity="0.15"/>
<rect x="0.5" y="0.5" width="31" height="31" rx="15.5" stroke="url(#paint1_linear_558_3525)" stroke-opacity="0.15"/>
<path d="M16.7118 27.0185C16.2495 27.0185 15.7982 27.0185 15.3359 27.0185C15.0717 26.9855 14.7966 26.9524 14.5324 26.9194C12.496 26.6332 10.6688 25.8517 9.08373 24.5528C6.98133 22.8247 5.66044 20.6122 5.17612 17.9264C5.09907 17.5191 5.06604 17.1009 5 16.6936C5 16.2313 5 15.78 5 15.3177C5.06604 14.8333 5.12108 14.349 5.20914 13.8757C6.11174 9.14255 10.1404 5.4771 14.9286 5.03681C17.2842 4.81666 19.5187 5.24595 21.5331 6.47877C25.4737 8.91139 27.3009 12.4778 26.9597 17.1009C26.7946 19.2913 25.947 21.2396 24.5601 22.9348C22.8319 25.0482 20.6195 26.358 17.9227 26.8424C17.5374 26.9194 17.1191 26.9634 16.7118 27.0185ZM22.4907 21.6359C22.4907 21.5588 22.5017 21.4928 22.5017 21.4267C22.5017 19.9738 22.5017 18.5208 22.5017 17.0568C22.5017 16.7486 22.4797 16.4404 22.4467 16.1322C22.2485 14.5582 21.3129 13.5675 19.7939 13.4024C18.7042 13.2813 17.7796 13.6005 17.1301 14.5251C17.1081 14.5582 17.0751 14.5912 16.998 14.6792C16.998 14.272 16.998 13.9307 16.998 13.5785C16.0954 13.5785 15.2148 13.5785 14.3342 13.5785C14.3342 16.2753 14.3342 18.9501 14.3342 21.6249C15.2258 21.6249 16.1064 21.6249 17.009 21.6249C17.009 21.5258 17.009 21.4378 17.009 21.3607C17.009 20.282 17.009 19.2143 17.009 18.1356C17.009 17.7173 17.009 17.288 17.0311 16.8697C17.0531 16.3854 17.2952 16.0111 17.6915 15.7359C18.462 15.1966 19.4637 15.5378 19.7169 16.4404C19.8049 16.7376 19.8269 17.0568 19.8379 17.376C19.8489 18.7189 19.8379 20.0618 19.8379 21.3937C19.8379 21.4708 19.8379 21.5478 19.8379 21.6249C20.7185 21.6359 21.5881 21.6359 22.4907 21.6359ZM10.1514 13.5675C10.1514 16.2753 10.1514 18.9611 10.1514 21.6359C11.043 21.6359 11.9236 21.6359 12.8262 21.6359C12.8262 21.5368 12.8262 21.4488 12.8262 21.3717C12.8262 18.9611 12.8262 16.5505 12.8262 14.1399C12.8262 14.0188 12.8152 13.8977 12.8262 13.7766C12.8483 13.6115 12.7712 13.5675 12.6171 13.5675C11.9126 13.5785 11.2082 13.5675 10.5037 13.5675C10.3936 13.5675 10.2835 13.5675 10.1514 13.5675ZM11.4063 9.6709C10.922 9.69292 10.4156 9.88004 10.1294 10.4414C9.76619 11.1679 10.0854 12.0265 10.8339 12.3347C11.6705 12.6869 12.6721 12.3017 12.9253 11.5201C13.2445 10.5735 12.5621 9.68191 11.4063 9.6709Z" fill="url(#paint2_linear_558_3525)"/>
<defs>
<linearGradient id="paint0_linear_558_3525" x1="32" y1="32" x2="-2.27483" y2="29.3428" gradientUnits="userSpaceOnUse">
<stop stop-color="#A36ADD"/>
<stop offset="1" stop-color="#5A96F3"/>
</linearGradient>
<linearGradient id="paint1_linear_558_3525" x1="32" y1="32" x2="-2.27483" y2="29.3428" gradientUnits="userSpaceOnUse">
<stop stop-color="#A36ADD"/>
<stop offset="1" stop-color="#5A96F3"/>
</linearGradient>
<linearGradient id="paint2_linear_558_3525" x1="2.95" y1="32.5277" x2="27.9092" y2="31.6777" gradientUnits="userSpaceOnUse">
<stop stop-color="#4A266F"/>
<stop offset="1" stop-color="#39549A"/>
</linearGradient>
</defs>
</svg>
