<svg width="30" height="30" viewBox="0 0 30 30" fill="none" xmlns="http://www.w3.org/2000/svg">
<path d="M6.29998 15.735C6.43474 16.4538 6.77921 17.1166 7.28998 17.64L17.49 27.87C17.8253 28.2401 18.2323 28.5382 18.6863 28.7464C19.1402 28.9545 19.6317 29.0684 20.1309 29.081C20.6302 29.0936 21.1268 29.0048 21.5907 28.8199C22.0546 28.6349 22.4761 28.3578 22.8298 28.0051C23.1834 27.6525 23.4618 27.2318 23.648 26.7684C23.8343 26.3051 23.9246 25.8087 23.9134 25.3094C23.9022 24.8102 23.7897 24.3183 23.5829 23.8638C23.376 23.4092 23.0791 23.0014 22.71 22.665L15 15L22.71 7.29C23.3961 6.60366 23.7815 5.67295 23.7815 4.7025C23.7815 3.73206 23.3961 2.80135 22.71 2.115C22.369 1.77103 21.962 1.49941 21.5136 1.31642C21.0651 1.13342 20.5843 1.04281 20.1 1.05C19.6163 1.04701 19.1367 1.13955 18.6888 1.3223C18.2409 1.50506 17.8335 1.77445 17.49 2.115L7.28998 12.36C6.92112 12.7107 6.64754 13.1494 6.49498 13.635C6.20628 14.2959 6.13791 15.0322 6.29998 15.735V15.735Z" fill="#5A96F3"/>
</svg>
