<?xml version="1.0" encoding="UTF-8" standalone="no"?>
<!DOCTYPE svg PUBLIC "-//W3C//DTD SVG 1.1//EN" "http://www.w3.org/Graphics/SVG/1.1/DTD/svg11.dtd">
<svg width="100%" height="100%" viewBox="0 0 12 12" version="1.1" xmlns="http://www.w3.org/2000/svg" xmlns:xlink="http://www.w3.org/1999/xlink" xml:space="preserve" xmlns:serif="http://www.serif.com/" style="fill-rule:evenodd;clip-rule:evenodd;stroke-linejoin:round;stroke-miterlimit:2;">
    <g transform="matrix(1,0,0,1,-0.489868,0.0601886)">
        <path d="M12,6.339C11.978,6.51 11.961,6.686 11.939,6.857C11.835,7.633 11.565,8.355 11.146,9.016C10.629,9.836 9.94,10.48 9.087,10.932C8.828,11.07 8.547,11.18 8.271,11.29C8.029,11.384 7.864,11.252 7.864,10.993C7.864,10.519 7.869,10.046 7.869,9.577C7.869,9.313 7.842,9.054 7.721,8.817C7.666,8.713 7.594,8.614 7.522,8.509C7.715,8.476 7.914,8.448 8.106,8.404C8.651,8.278 9.142,8.046 9.494,7.589C9.753,7.259 9.885,6.879 9.951,6.471C10.006,6.135 10.023,5.794 9.979,5.458C9.929,5.056 9.769,4.703 9.511,4.395C9.456,4.329 9.45,4.274 9.472,4.197C9.604,3.756 9.555,3.321 9.395,2.897C9.384,2.869 9.312,2.836 9.274,2.842C9.098,2.869 8.91,2.886 8.751,2.952C8.475,3.068 8.216,3.227 7.952,3.36C7.902,3.387 7.831,3.398 7.776,3.387C6.917,3.178 6.058,3.178 5.198,3.387C5.149,3.398 5.077,3.387 5.033,3.36C4.714,3.161 4.394,2.974 4.031,2.88C3.915,2.853 3.8,2.847 3.678,2.836C3.623,2.831 3.59,2.858 3.574,2.919C3.425,3.354 3.381,3.795 3.524,4.246C3.535,4.279 3.524,4.334 3.502,4.356C3.034,4.896 2.929,5.529 3.001,6.218C3.034,6.559 3.106,6.89 3.249,7.198C3.486,7.71 3.882,8.052 4.4,8.261C4.708,8.388 5.028,8.454 5.358,8.498C5.391,8.503 5.43,8.509 5.452,8.514C5.38,8.641 5.298,8.762 5.237,8.894C5.204,8.966 5.176,9.043 5.165,9.12C5.154,9.236 5.094,9.285 4.989,9.318C4.648,9.423 4.306,9.456 3.981,9.269C3.8,9.17 3.667,9.021 3.563,8.845C3.442,8.647 3.293,8.47 3.089,8.36C2.935,8.272 2.77,8.212 2.588,8.245C2.538,8.256 2.472,8.283 2.45,8.327C2.439,8.355 2.489,8.421 2.516,8.459C2.544,8.492 2.577,8.52 2.615,8.542C2.935,8.735 3.117,9.032 3.254,9.368C3.475,9.897 3.893,10.145 4.444,10.172C4.659,10.183 4.879,10.15 5.105,10.139C5.105,10.15 5.11,10.178 5.11,10.2C5.116,10.459 5.116,10.723 5.121,10.982C5.121,11.274 4.951,11.389 4.681,11.29C3.464,10.855 2.505,10.089 1.817,8.999C1.376,8.305 1.112,7.54 1.024,6.719C1.013,6.598 0.996,6.471 0.98,6.35L0.98,5.75C0.985,5.722 0.996,5.695 0.996,5.667C1.035,5.083 1.156,4.516 1.393,3.987C2.252,2.043 3.728,0.898 5.837,0.606C7.071,0.435 8.244,0.694 9.312,1.349C10.744,2.203 11.609,3.47 11.912,5.111C11.95,5.315 11.967,5.529 12,5.739L12,6.339Z" style="fill:rgb(90,150,243);fill-rule:nonzero;"/>
    </g>
</svg>
