<svg width="30" height="30" viewBox="0 0 30 30" fill="none" xmlns="http://www.w3.org/2000/svg">
<path d="M14.2651 6.3C13.5463 6.43476 12.8834 6.77922 12.3601 7.29L2.13007 17.49C1.49136 18.1908 1.1469 19.1105 1.16817 20.0584C1.18943 21.0064 1.57477 21.9097 2.24426 22.5812C2.91375 23.2526 3.81601 23.6405 4.76388 23.6645C5.71175 23.6885 6.63247 23.3467 7.33507 22.71L15.0001 15L22.7101 22.71C23.3964 23.3961 24.3271 23.7815 25.2976 23.7815C26.268 23.7815 27.1987 23.3961 27.8851 22.71C28.229 22.369 28.5007 21.962 28.6837 21.5136C28.8667 21.0651 28.9573 20.5843 28.9501 20.1C28.9531 19.6163 28.8605 19.1367 28.6778 18.6888C28.495 18.2409 28.2256 17.8335 27.8851 17.49L17.6401 7.29C17.2894 6.92114 16.8506 6.64756 16.3651 6.495C15.7041 6.2063 14.9679 6.13793 14.2651 6.3Z" fill="#5A96F3"/>
</svg>
