<svg width="30" height="30" viewBox="0 0 30 30" fill="none" xmlns="http://www.w3.org/2000/svg">
<path d="M15.735 23.7C16.4537 23.5653 17.1166 23.2208 17.64 22.71L27.87 12.51C28.5087 11.8093 28.8531 10.8895 28.8319 9.94158C28.8106 8.99365 28.4253 8.09028 27.7558 7.41885C27.0863 6.74743 26.184 6.35949 25.2362 6.3355C24.2883 6.31151 23.3676 6.65332 22.665 7.29002L15 15L7.28996 7.29002C6.60362 6.60394 5.6729 6.21854 4.70246 6.21854C3.73202 6.21854 2.8013 6.60394 2.11496 7.29002C1.77099 7.63104 1.49937 8.03797 1.31637 8.48644C1.13338 8.93491 1.04276 9.4157 1.04996 9.90001C1.04696 10.3837 1.1395 10.8633 1.32226 11.3112C1.50502 11.7591 1.7744 12.1665 2.11496 12.51L12.36 22.71C12.7106 23.0789 13.1494 23.3525 13.635 23.505C14.2959 23.7937 15.0322 23.8621 15.735 23.7V23.7Z" fill="#5A96F3"/>
</svg>
