<svg width="32" height="32" viewBox="0 0 32 32" fill="none" xmlns="http://www.w3.org/2000/svg">
<rect width="32" height="32" rx="16" fill="url(#paint0_linear_681_3033)" fill-opacity="0.15"/>
<rect x="0.5" y="0.5" width="31" height="31" rx="15.5" stroke="url(#paint1_linear_681_3033)" stroke-opacity="0.15"/>
<path d="M16.0029 6.83331H15.9984C10.9441 6.83331 6.83398 10.9446 6.83398 16C6.83398 18.0052 7.48023 19.8637 8.57909 21.3728L7.43669 24.7782L10.9601 23.6519C12.4096 24.6121 14.1387 25.1666 16.0029 25.1666C21.0572 25.1666 25.1673 21.0543 25.1673 16C25.1673 10.9457 21.0572 6.83331 16.0029 6.83331ZM21.3368 19.7778C21.1157 20.4023 20.2379 20.9202 19.5378 21.0714C19.0589 21.1734 18.4333 21.2548 16.3272 20.3816C13.6334 19.2656 11.8986 16.5282 11.7634 16.3506C11.6339 16.173 10.6748 14.9011 10.6748 13.5857C10.6748 12.2703 11.3428 11.6298 11.6121 11.3548C11.8333 11.129 12.1988 11.0259 12.5494 11.0259C12.6628 11.0259 12.7648 11.0316 12.8565 11.0362C13.1258 11.0477 13.261 11.0637 13.4386 11.4888C13.6597 12.0216 14.1983 13.3371 14.2624 13.4723C14.3277 13.6075 14.393 13.7908 14.3014 13.9684C14.2154 14.1518 14.1398 14.2331 14.0046 14.3889C13.8694 14.5448 13.7411 14.6639 13.6059 14.8312C13.4821 14.9768 13.3423 15.1326 13.4982 15.4019C13.654 15.6654 14.1925 16.5443 14.9854 17.2501C16.0087 18.161 16.8383 18.4521 17.135 18.5758C17.3562 18.6675 17.6197 18.6457 17.7813 18.4738C17.9864 18.2527 18.2396 17.886 18.4974 17.5251C18.6808 17.2661 18.9122 17.234 19.1551 17.3257C19.4026 17.4116 20.7123 18.059 20.9816 18.1931C21.2509 18.3283 21.4285 18.3925 21.4938 18.5059C21.5579 18.6194 21.5579 19.1522 21.3368 19.7778Z" fill="url(#paint2_linear_681_3033)"/>
<defs>
<linearGradient id="paint0_linear_681_3033" x1="32" y1="32" x2="-2.27483" y2="29.3428" gradientUnits="userSpaceOnUse">
<stop stop-color="#A36ADD"/>
<stop offset="1" stop-color="#5A96F3"/>
</linearGradient>
<linearGradient id="paint1_linear_681_3033" x1="32" y1="32" x2="-2.27483" y2="29.3428" gradientUnits="userSpaceOnUse">
<stop stop-color="#A36ADD"/>
<stop offset="1" stop-color="#5A96F3"/>
</linearGradient>
<linearGradient id="paint2_linear_681_3033" x1="5.12565" y1="29.75" x2="25.9249" y2="29.0404" gradientUnits="userSpaceOnUse">
<stop stop-color="#4A266F"/>
<stop offset="1" stop-color="#39549A"/>
</linearGradient>
</defs>
</svg>
