<svg width="32" height="32" viewBox="0 0 32 32" fill="none" xmlns="http://www.w3.org/2000/svg">
<rect width="32" height="32" rx="16" fill="url(#paint0_linear_558_3533)" fill-opacity="0.15"/>
<rect x="0.5" y="0.5" width="31" height="31" rx="15.5" stroke="url(#paint1_linear_558_3533)" stroke-opacity="0.15"/>
<path d="M21.8078 13.0031C21.8078 12.948 21.8078 12.8929 21.8078 12.8158C21.7418 12.8709 21.6978 12.9039 21.6648 12.937C20.3448 14.0499 19.0248 15.1517 17.7048 16.2646C16.6708 17.135 15.2628 17.135 14.2288 16.2756C13.3158 15.5263 12.4248 14.7661 11.5228 14.0058C11.0608 13.6201 10.5878 13.2235 10.1038 12.8158C10.1038 12.8819 10.0928 12.926 10.0928 12.959C10.0928 15.0415 10.0928 17.124 10.0928 19.2065C10.0928 19.2947 10.0928 19.3828 10.1148 19.46C10.2358 19.9999 10.6868 20.3524 11.2588 20.3524C12.7438 20.3524 14.2178 20.3524 15.7028 20.3524C17.3418 20.3524 18.9918 20.3524 20.6308 20.3524C21.0488 20.3524 21.3788 20.1982 21.6208 19.8676C21.7858 19.6362 21.8078 19.3828 21.8078 19.1074C21.8078 17.08 21.8078 15.0415 21.8078 13.0031Z" fill="url(#paint2_linear_558_3533)"/>
<path d="M15.1533 15.1405C15.7253 15.6143 16.3193 15.6033 16.8913 15.1075C18.1893 14.0056 19.4763 12.8928 20.7743 11.7909C20.7963 11.7689 20.8183 11.7468 20.8513 11.7028C17.5843 11.7028 14.3503 11.7028 11.0723 11.7028C11.1163 11.7468 11.1383 11.7689 11.1713 11.7909C12.4913 12.9148 13.8223 14.0277 15.1533 15.1405Z" fill="url(#paint3_linear_558_3533)"/>
<path d="M16 4.98157C9.928 4.98157 5 9.90682 5 16C5 22.0932 9.928 27.0185 16 27.0185C22.072 27.0185 27 22.0822 27 16C27 9.91784 22.072 4.98157 16 4.98157ZM23.359 19.1844C23.359 20.5947 22.215 21.7517 20.796 21.7517C17.595 21.7627 14.394 21.7517 11.193 21.7517C10.093 21.7517 9.114 21.0355 8.762 19.9887C8.707 19.8124 8.674 19.6251 8.63 19.4488C8.63 17.1459 8.63 14.8431 8.63 12.5402C8.641 12.5182 8.652 12.4851 8.652 12.4631C8.85 11.1739 9.895 10.2374 11.193 10.2374C14.383 10.2264 17.562 10.2374 20.752 10.2374C22.204 10.2374 23.337 11.4604 23.359 12.8708C23.37 14.9753 23.359 17.0798 23.359 19.1844Z" fill="url(#paint4_linear_558_3533)"/>
<defs>
<linearGradient id="paint0_linear_558_3533" x1="32" y1="32" x2="-2.27483" y2="29.3428" gradientUnits="userSpaceOnUse">
<stop stop-color="#A36ADD"/>
<stop offset="1" stop-color="#5A96F3"/>
</linearGradient>
<linearGradient id="paint1_linear_558_3533" x1="32" y1="32" x2="-2.27483" y2="29.3428" gradientUnits="userSpaceOnUse">
<stop stop-color="#A36ADD"/>
<stop offset="1" stop-color="#5A96F3"/>
</linearGradient>
<linearGradient id="paint2_linear_558_3533" x1="9.00115" y1="22.2366" x2="22.27" y2="21.533" gradientUnits="userSpaceOnUse">
<stop stop-color="#4A266F"/>
<stop offset="1" stop-color="#39549A"/>
</linearGradient>
<linearGradient id="paint3_linear_558_3533" x1="10.161" y1="16.4341" x2="21.1827" y2="15.4626" gradientUnits="userSpaceOnUse">
<stop stop-color="#4A266F"/>
<stop offset="1" stop-color="#39549A"/>
</linearGradient>
<linearGradient id="paint4_linear_558_3533" x1="2.95" y1="32.5277" x2="27.9092" y2="31.6777" gradientUnits="userSpaceOnUse">
<stop stop-color="#4A266F"/>
<stop offset="1" stop-color="#39549A"/>
</linearGradient>
</defs>
</svg>
