<?xml version="1.0" encoding="UTF-8" standalone="no"?>
<!DOCTYPE svg PUBLIC "-//W3C//DTD SVG 1.1//EN" "http://www.w3.org/Graphics/SVG/1.1/DTD/svg11.dtd">
<svg width="100%" height="100%" viewBox="0 0 12 12" version="1.1" xmlns="http://www.w3.org/2000/svg" xmlns:xlink="http://www.w3.org/1999/xlink" xml:space="preserve" xmlns:serif="http://www.serif.com/" style="fill-rule:evenodd;clip-rule:evenodd;stroke-linejoin:round;stroke-miterlimit:2;">
    <g transform="matrix(1,0,0,1,0.00632647,0.4871)">
        <path d="M6.35,11.026L5.661,11.026C5.529,11.009 5.392,10.993 5.259,10.976C4.241,10.833 3.326,10.442 2.533,9.792C1.481,8.928 0.82,7.821 0.578,6.477C0.54,6.273 0.523,6.064 0.49,5.86L0.49,5.172C0.523,4.929 0.551,4.687 0.595,4.45C1.046,2.082 3.062,0.248 5.458,0.028C6.636,-0.083 7.754,0.132 8.762,0.749C10.734,1.966 11.648,3.751 11.477,6.064C11.395,7.16 10.971,8.134 10.277,8.983C9.412,10.04 8.305,10.695 6.956,10.938C6.763,10.976 6.554,10.998 6.35,11.026ZM9.241,8.333C9.241,8.294 9.247,8.261 9.247,8.228L9.247,6.042C9.247,5.887 9.236,5.733 9.219,5.579C9.12,4.792 8.652,4.296 7.892,4.213C7.347,4.153 6.884,4.312 6.559,4.775C6.548,4.792 6.532,4.808 6.493,4.852L6.493,4.301L5.16,4.301L5.16,8.327L6.499,8.327L6.499,6.581C6.499,6.372 6.499,6.157 6.51,5.948C6.521,5.706 6.642,5.518 6.84,5.381C7.226,5.111 7.727,5.282 7.853,5.733C7.897,5.882 7.908,6.042 7.914,6.201C7.919,6.873 7.914,7.545 7.914,8.212L7.914,8.327C8.355,8.333 8.79,8.333 9.241,8.333ZM3.067,4.296L3.067,8.333L4.406,8.333L4.406,4.582C4.406,4.522 4.4,4.461 4.406,4.4C4.417,4.318 4.378,4.296 4.301,4.296C3.949,4.301 3.596,4.296 3.244,4.296L3.067,4.296ZM3.695,2.346C3.453,2.357 3.2,2.451 3.056,2.732C2.875,3.095 3.034,3.525 3.409,3.679C3.827,3.855 4.329,3.663 4.455,3.271C4.615,2.798 4.274,2.352 3.695,2.346Z" style="fill:rgb(90,150,243);fill-rule:nonzero;"/>
    </g>
</svg>
