<?xml version="1.0" encoding="UTF-8" standalone="no"?>
<!DOCTYPE svg PUBLIC "-//W3C//DTD SVG 1.1//EN" "http://www.w3.org/Graphics/SVG/1.1/DTD/svg11.dtd">
<svg width="100%" height="100%" viewBox="0 0 12 12" version="1.1" xmlns="http://www.w3.org/2000/svg" xmlns:xlink="http://www.w3.org/1999/xlink" xml:space="preserve" xmlns:serif="http://www.serif.com/" style="fill-rule:evenodd;clip-rule:evenodd;stroke-linejoin:round;stroke-miterlimit:2;">
    <g transform="matrix(1,0,0,1,0.49265,0.365784)">
        <g>
            <path d="M8.415,7.187L8.415,4.043C8.382,4.07 8.36,4.087 8.344,4.103C7.683,4.659 7.022,5.21 6.361,5.766C5.843,6.202 5.138,6.202 4.621,5.772C4.164,5.397 3.717,5.017 3.266,4.637C3.035,4.445 2.798,4.246 2.555,4.043C2.555,4.076 2.55,4.098 2.55,4.114L2.55,7.237C2.55,7.281 2.55,7.325 2.561,7.364C2.622,7.633 2.847,7.81 3.134,7.81L7.826,7.81C8.035,7.81 8.2,7.733 8.322,7.567C8.404,7.452 8.415,7.325 8.415,7.187Z" style="fill:rgb(90,150,243);fill-rule:nonzero;"/>
            <path d="M5.083,5.205C5.37,5.441 5.667,5.436 5.953,5.188C6.603,4.637 7.248,4.081 7.898,3.53C7.909,3.519 7.92,3.508 7.936,3.486L3.04,3.486C3.062,3.508 3.073,3.519 3.09,3.53C3.75,4.092 4.417,4.648 5.083,5.205Z" style="fill:rgb(90,150,243);fill-rule:nonzero;"/>
        </g>
        <path d="M5.507,0.127C2.467,0.127 0,2.589 0,5.634C0,8.68 2.467,11.142 5.507,11.142C8.547,11.142 11.015,8.674 11.015,5.634C11.015,2.594 8.547,0.127 5.507,0.127ZM9.192,7.226C9.192,7.931 8.619,8.509 7.909,8.509C6.306,8.515 4.703,8.509 3.101,8.509C2.55,8.509 2.06,8.151 1.884,7.628C1.856,7.54 1.839,7.446 1.817,7.358L1.817,3.905C1.823,3.894 1.828,3.877 1.828,3.866C1.928,3.222 2.451,2.754 3.101,2.754C4.698,2.748 6.289,2.754 7.887,2.754C8.614,2.754 9.181,3.365 9.192,4.07C9.197,5.122 9.192,6.174 9.192,7.226Z" style="fill:rgb(90,150,243);fill-rule:nonzero;"/>
    </g>
</svg>
