<svg width="55" height="41" viewBox="0 0 55 41" fill="none" xmlns="http://www.w3.org/2000/svg">
<path d="M2.77603 21.1183C2.19558 21.1183 1.5857 21.0468 0.946372 20.9038C0.315457 20.7608 0 20.4832 0 20.071C0 19.8859 0.0294427 19.6335 0.0883281 19.3139C0.155626 18.9858 0.256572 18.6872 0.391167 18.418C0.534175 18.1488 0.710831 18.0058 0.921136 17.989C0.963197 17.989 1.05994 18.0058 1.21136 18.0394C1.57308 18.1236 1.89274 18.1656 2.17035 18.1656C2.85173 18.1656 3.33544 17.9848 3.62145 17.623C3.91588 17.2529 4.06309 16.6556 4.06309 15.8312V5.90063C4.06309 5.40431 4.50894 5.15615 5.40063 5.15615H6.19558C7.08728 5.15615 7.53312 5.40431 7.53312 5.90063V16.3864C7.53312 17.8838 7.14616 19.0489 6.37224 19.8817C5.59832 20.7061 4.39958 21.1183 2.77603 21.1183Z" fill="url(#paint0_linear_609_31793)"/>
<path d="M17.2366 21.1183C15.7056 21.1183 14.4017 20.807 13.3249 20.1845C12.2566 19.562 11.4406 18.6535 10.877 17.459C10.3218 16.256 10.0442 14.7923 10.0442 13.0678C10.0442 11.3517 10.3218 9.89643 10.877 8.70189C11.4406 7.49895 12.2566 6.59043 13.3249 5.97634C14.4017 5.35384 15.7056 5.04259 17.2366 5.04259C18.776 5.04259 20.0799 5.35384 21.1483 5.97634C22.225 6.59043 23.041 7.49895 23.5962 8.70189C24.1514 9.89643 24.429 11.3517 24.429 13.0678C24.429 14.7923 24.1514 16.256 23.5962 17.459C23.041 18.6535 22.225 19.562 21.1483 20.1845C20.0799 20.807 18.776 21.1183 17.2366 21.1183ZM17.2366 18.1656C18.4395 18.1656 19.3481 17.7324 19.9621 16.8659C20.5762 15.9911 20.8833 14.725 20.8833 13.0678C20.8833 11.4106 20.5762 10.153 19.9621 9.29495C19.3481 8.43691 18.4395 8.00789 17.2366 8.00789C16.0421 8.00789 15.1335 8.44111 14.511 9.30757C13.897 10.1656 13.5899 11.419 13.5899 13.0678C13.5899 14.725 13.9012 15.9911 14.5237 16.8659C15.1462 17.7324 16.0505 18.1656 17.2366 18.1656Z" fill="url(#paint1_linear_609_31793)"/>
<path d="M31.205 21.1183C30.1451 21.1183 29.2114 21.0131 28.4038 20.8028C27.6046 20.5841 26.9905 20.3191 26.5615 20.0079C26.1409 19.6966 25.9306 19.4022 25.9306 19.1246C25.9306 18.9059 26.0105 18.6367 26.1703 18.317C26.3386 17.9974 26.5363 17.724 26.7634 17.4968C26.9905 17.2613 27.1798 17.1435 27.3312 17.1435C27.4238 17.1435 27.6214 17.2234 27.9243 17.3833C28.3785 17.6188 28.8076 17.8081 29.2114 17.9511C29.6236 18.0941 30.0946 18.1656 30.6246 18.1656C31.2135 18.1656 31.7098 18.0521 32.1136 17.8249C32.5258 17.5894 32.7319 17.1814 32.7319 16.6009C32.7319 16.2645 32.6267 15.9742 32.4164 15.7303C32.2061 15.4863 31.9369 15.2802 31.6088 15.112C31.2808 14.9437 30.8349 14.7461 30.2713 14.5189L29.2744 14.0899C28.6688 13.7955 28.1472 13.4716 27.7098 13.1183C27.2808 12.765 26.9274 12.2981 26.6498 11.7177C26.3807 11.1372 26.2461 10.4264 26.2461 9.58517C26.2461 8.55889 26.4984 7.70505 27.0032 7.02366C27.5079 6.34227 28.164 5.84175 28.9716 5.52208C29.7792 5.20242 30.6456 5.04259 31.571 5.04259C32.3281 5.04259 33.0137 5.1225 33.6278 5.28233C34.2418 5.43375 34.7213 5.63144 35.0662 5.87539C35.4196 6.11935 35.5962 6.3633 35.5962 6.60726C35.5962 6.80915 35.5289 7.06993 35.3943 7.38959C35.2681 7.70084 35.1083 7.97424 34.9148 8.20978C34.7213 8.44532 34.5405 8.56309 34.3722 8.56309C34.2965 8.56309 34.1619 8.52103 33.9685 8.43691C33.6572 8.31073 33.3417 8.20978 33.0221 8.13407C32.7108 8.04995 32.3281 8.00789 31.8738 8.00789C31.0915 8.00789 30.5489 8.13407 30.2461 8.38644C29.9432 8.63039 29.7918 8.92061 29.7918 9.2571C29.7918 9.64406 29.8927 9.96793 30.0946 10.2287C30.3049 10.4895 30.5657 10.704 30.877 10.8722C31.1966 11.0405 31.6383 11.234 32.2019 11.4527C33.0515 11.8144 33.7455 12.1593 34.2839 12.4874C34.8223 12.807 35.285 13.2697 35.6719 13.8754C36.0673 14.4811 36.265 15.255 36.265 16.1972C36.265 17.3496 36.021 18.296 35.5331 19.0363C35.0536 19.7681 34.4311 20.2981 33.6656 20.6262C32.9085 20.9543 32.0883 21.1183 31.205 21.1183Z" fill="url(#paint2_linear_609_31793)"/>
<path d="M39.1167 20.929C38.8055 20.929 38.5783 20.8575 38.4353 20.7145C38.2923 20.5715 38.2208 20.3444 38.2208 20.0331V6.11514C38.2208 5.80389 38.2923 5.58097 38.4353 5.44637C38.5783 5.30337 38.8055 5.23186 39.1167 5.23186H47.3312C47.5668 5.23186 47.735 5.32019 47.836 5.49685C47.9453 5.6735 48 5.95952 48 6.35489V7.03628C48 7.43165 47.9453 7.71767 47.836 7.89432C47.735 8.07098 47.5668 8.15931 47.3312 8.15931H41.6782V11.4148H46.7256C46.9611 11.4148 47.1293 11.5032 47.2303 11.6798C47.3396 11.8565 47.3943 12.1425 47.3943 12.5379V13.2319C47.3943 13.6272 47.3396 13.9132 47.2303 14.0899C47.1293 14.2666 46.9611 14.3549 46.7256 14.3549H41.6782V17.989H47.3438C47.5794 17.989 47.7476 18.0773 47.8486 18.2539C47.9579 18.4306 48.0126 18.7124 48.0126 19.0994V19.806C48.0126 20.2014 47.9579 20.4874 47.8486 20.664C47.7476 20.8407 47.5794 20.929 47.3438 20.929H39.1167ZM42.4353 4.07098C42.1661 4.07098 41.9811 4.04574 41.8801 3.99527C41.7876 3.9448 41.7413 3.85647 41.7413 3.73028C41.7413 3.66299 41.7918 3.5326 41.8927 3.33912C42.0021 3.14564 42.1409 2.90589 42.3091 2.61987C42.6793 2.00578 42.9737 1.50105 43.1924 1.10568C43.3186 0.878549 43.5415 0.722923 43.8612 0.638801C44.1893 0.546267 44.6015 0.5 45.0978 0.5C45.5689 0.5 45.9096 0.525237 46.1199 0.57571C46.3302 0.617771 46.4353 0.697687 46.4353 0.815457C46.4353 0.899579 46.3975 0.992114 46.3218 1.09306C46.2461 1.18559 46.0189 1.43796 45.6404 1.85016L44.1136 3.50315C43.9453 3.6714 43.7392 3.8102 43.4953 3.91956C43.2597 4.0205 42.9064 4.07098 42.4353 4.07098Z" fill="url(#paint3_linear_609_31793)"/>
<path d="M5.76656 40.5C4.70662 40.5 3.77287 40.3948 2.9653 40.1845C2.16614 39.9658 1.55205 39.7008 1.12303 39.3896C0.702418 39.0783 0.492114 38.7839 0.492114 38.5063C0.492114 38.2876 0.572029 38.0184 0.731861 37.6987C0.900105 37.3791 1.09779 37.1057 1.32492 36.8785C1.55205 36.643 1.74132 36.5252 1.89274 36.5252C1.98528 36.5252 2.18297 36.6052 2.4858 36.765C2.94006 37.0005 3.36909 37.1898 3.77287 37.3328C4.18507 37.4758 4.65615 37.5473 5.18612 37.5473C5.77497 37.5473 6.27129 37.4338 6.67508 37.2066C7.08728 36.9711 7.29338 36.5631 7.29338 35.9827C7.29338 35.6462 7.18822 35.3559 6.97792 35.112C6.76761 34.868 6.49842 34.6619 6.17035 34.4937C5.84227 34.3254 5.39642 34.1278 4.83281 33.9006L3.83596 33.4716C3.23028 33.1772 2.70873 32.8533 2.27129 32.5C1.84227 32.1467 1.48896 31.6798 1.21136 31.0994C0.942166 30.5189 0.807571 29.8081 0.807571 28.9669C0.807571 27.9406 1.05994 27.0868 1.56467 26.4054C2.0694 25.724 2.72555 25.2234 3.53312 24.9038C4.34069 24.5841 5.20715 24.4243 6.13249 24.4243C6.88959 24.4243 7.57518 24.5042 8.18927 24.664C8.80336 24.8155 9.28286 25.0131 9.62776 25.2571C9.98107 25.5011 10.1577 25.745 10.1577 25.989C10.1577 26.1909 10.0904 26.4516 9.95584 26.7713C9.82965 27.0825 9.66982 27.3559 9.47634 27.5915C9.28286 27.827 9.102 27.9448 8.93375 27.9448C8.85804 27.9448 8.72345 27.9027 8.52997 27.8186C8.21872 27.6924 7.90326 27.5915 7.5836 27.5158C7.27234 27.4317 6.88959 27.3896 6.43533 27.3896C5.653 27.3896 5.11041 27.5158 4.80757 27.7681C4.50473 28.0121 4.35331 28.3023 4.35331 28.6388C4.35331 29.0258 4.45426 29.3496 4.65615 29.6104C4.86646 29.8712 5.12723 30.0857 5.43849 30.2539C5.75815 30.4222 6.19979 30.6157 6.76341 30.8344C7.61304 31.1961 8.30704 31.541 8.84543 31.8691C9.38381 32.1887 9.84648 32.6514 10.2334 33.2571C10.6288 33.8628 10.8265 34.6367 10.8265 35.5789C10.8265 36.7313 10.5825 37.6777 10.0946 38.418C9.61514 39.1498 8.99264 39.6798 8.22713 40.0079C7.47003 40.336 6.64984 40.5 5.76656 40.5Z" fill="url(#paint4_linear_609_31793)"/>
<path d="M13.9937 40.3738C13.5394 40.3738 13.1987 40.3107 12.9716 40.1845C12.7529 40.0584 12.6435 39.8775 12.6435 39.642V25.2823C12.6435 24.786 13.0936 24.5379 13.9937 24.5379H14.776C15.2387 24.5379 15.5752 24.6009 15.7855 24.7271C16.0042 24.8533 16.1136 25.0384 16.1136 25.2823V39.642C16.1136 40.1299 15.6677 40.3738 14.776 40.3738H13.9937Z" fill="url(#paint5_linear_609_31793)"/>
<path d="M20.0126 40.3107C19.7014 40.3107 19.4742 40.2392 19.3312 40.0962C19.1882 39.9532 19.1167 39.7261 19.1167 39.4148V25.2823C19.1167 25.0384 19.2261 24.8575 19.4448 24.7397C19.6635 24.6136 20.0042 24.5505 20.4669 24.5505H21.224C21.6866 24.5505 22.0273 24.6136 22.2461 24.7397C22.4648 24.8575 22.5741 25.0384 22.5741 25.2823V37.3707H27.571C27.8065 37.3707 27.9748 37.459 28.0757 37.6356C28.1851 37.8123 28.2397 38.0941 28.2397 38.4811V39.1877C28.2397 39.5831 28.1851 39.8691 28.0757 40.0457C27.9748 40.2224 27.8065 40.3107 27.571 40.3107H20.0126Z" fill="url(#paint6_linear_609_31793)"/>
<path d="M33.817 40.3486C33.4553 40.3486 33.1693 40.3149 32.959 40.2476C32.7487 40.1719 32.6183 40.0499 32.5678 39.8817L27.7224 25.459C27.6551 25.2571 27.6214 25.1225 27.6214 25.0552C27.6214 24.7187 28.0799 24.5505 28.9968 24.5505H29.7287C30.4774 24.5505 30.919 24.7734 31.0536 25.2192L34.082 34.9227L34.3344 35.705H34.4227L34.6751 34.9227L37.7792 25.2192C37.9306 24.7734 38.3764 24.5505 39.1167 24.5505H39.7981C40.6982 24.5505 41.1483 24.7187 41.1483 25.0552C41.1483 25.2066 41.123 25.3412 41.0726 25.459L36.2271 39.8817C36.1767 40.0499 36.0421 40.1719 35.8233 40.2476C35.613 40.3149 35.3312 40.3486 34.9779 40.3486H33.817Z" fill="url(#paint7_linear_609_31793)"/>
<path d="M42.0568 40.3486C41.1399 40.3486 40.6814 40.1845 40.6814 39.8565C40.6814 39.7639 40.7108 39.6293 40.7697 39.4527L45.7161 25.03C45.8339 24.7103 46.2587 24.5505 46.9905 24.5505H48.1514C48.8833 24.5505 49.3081 24.7103 49.4259 25.03L54.3722 39.4527C54.4143 39.6209 54.4353 39.7555 54.4353 39.8565C54.4353 40.0247 54.3428 40.1509 54.1577 40.235C53.9811 40.3107 53.6993 40.3486 53.3123 40.3486H52.3281C51.9748 40.3486 51.6887 40.3149 51.47 40.2476C51.2597 40.1719 51.1293 40.0499 51.0789 39.8817L50.1703 37.1435H44.8833L43.9748 39.8817C43.8822 40.193 43.5373 40.3486 42.9401 40.3486H42.0568ZM49.2114 34.1782L47.9369 30.1909C47.8612 29.989 47.7939 29.7576 47.735 29.4968C47.6845 29.2361 47.6383 28.9879 47.5962 28.7524H47.5079L47.4574 29.03C47.3733 29.5263 47.2765 29.9133 47.1672 30.1909L45.8423 34.1782H49.2114Z" fill="url(#paint8_linear_609_31793)"/>
<defs>
<linearGradient id="paint0_linear_609_31793" x1="56.7928" y1="38.5731" x2="31.6044" y2="-21.2458" gradientUnits="userSpaceOnUse">
<stop stop-color="#A36ADD"/>
<stop offset="1" stop-color="#5A96F3"/>
</linearGradient>
<linearGradient id="paint1_linear_609_31793" x1="56.7928" y1="38.5731" x2="31.6044" y2="-21.2458" gradientUnits="userSpaceOnUse">
<stop stop-color="#A36ADD"/>
<stop offset="1" stop-color="#5A96F3"/>
</linearGradient>
<linearGradient id="paint2_linear_609_31793" x1="56.7928" y1="38.5731" x2="31.6044" y2="-21.2458" gradientUnits="userSpaceOnUse">
<stop stop-color="#A36ADD"/>
<stop offset="1" stop-color="#5A96F3"/>
</linearGradient>
<linearGradient id="paint3_linear_609_31793" x1="56.7928" y1="38.5731" x2="31.6044" y2="-21.2458" gradientUnits="userSpaceOnUse">
<stop stop-color="#A36ADD"/>
<stop offset="1" stop-color="#5A96F3"/>
</linearGradient>
<linearGradient id="paint4_linear_609_31793" x1="56.7928" y1="38.5731" x2="31.6044" y2="-21.2458" gradientUnits="userSpaceOnUse">
<stop stop-color="#A36ADD"/>
<stop offset="1" stop-color="#5A96F3"/>
</linearGradient>
<linearGradient id="paint5_linear_609_31793" x1="56.7928" y1="38.5731" x2="31.6044" y2="-21.2458" gradientUnits="userSpaceOnUse">
<stop stop-color="#A36ADD"/>
<stop offset="1" stop-color="#5A96F3"/>
</linearGradient>
<linearGradient id="paint6_linear_609_31793" x1="56.7928" y1="38.5731" x2="31.6044" y2="-21.2458" gradientUnits="userSpaceOnUse">
<stop stop-color="#A36ADD"/>
<stop offset="1" stop-color="#5A96F3"/>
</linearGradient>
<linearGradient id="paint7_linear_609_31793" x1="56.7928" y1="38.5731" x2="31.6044" y2="-21.2458" gradientUnits="userSpaceOnUse">
<stop stop-color="#A36ADD"/>
<stop offset="1" stop-color="#5A96F3"/>
</linearGradient>
<linearGradient id="paint8_linear_609_31793" x1="56.7928" y1="38.5731" x2="31.6044" y2="-21.2458" gradientUnits="userSpaceOnUse">
<stop stop-color="#A36ADD"/>
<stop offset="1" stop-color="#5A96F3"/>
</linearGradient>
</defs>
</svg>
